# xmcd
# 
# Track frame offsets:
#     150
#     15770
#     32882
#     49265
#     66380
#     85512
#     107392
#     126825
#     144347
#     160482
#     177185
#     196297
#     212775
#     230467
#     248170
#     266162
#     283760
#     299700
#     315877
#     334512
# 
# Disc length: 4697
# 
# Revision: 8
# Processed by: cddbd v1.5.2PL0 Copyright (c) Steve Scherf et al.
# Submitted via: BonkEnc v1.0.8
# 
DISCID=1f125714
DTITLE=Kool and The Gang - Best Of Kool and The Gang
DYEAR=0
DGENRE=Pop
TTITLE0=Ladies' Night
TTITLE1=Too Hot
TTITLE2=Steppin' Out
TTITLE3=Take My Heart
TTITLE4=Be My Lady
TTITLE5=Get Down On It
TTITLE6=No Show
TTITLE7=Big Fun
TTITLE8=Hi De Hi, Hi De Ho
TTITLE9=Celebration
TTITLE10=Jones Vs. Jones
TTITLE11=Take It To The Top
TTITLE12=Victory
TTITLE13=In The Heart
TTITLE14=Joanna
TTITLE15=Tonight
TTITLE16=Straight Ahead
TTITLE17=Fresh
TTITLE18=Misled
TTITLE19=Cherish
EXTD=
EXTT0=
EXTT1=
EXTT2=
EXTT3=
EXTT4=
EXTT5=
EXTT6=
EXTT7=
EXTT8=
EXTT9=
EXTT10=
EXTT11=
EXTT12=
EXTT13=
EXTT14=
EXTT15=
EXTT16=
EXTT17=
EXTT18=
EXTT19=
PLAYORDER=
